<?xml version="1.0" standalone="no"?>
<!DOCTYPE svg PUBLIC "-//W3C//DTD SVG 20010904//EN"
 "http://www.w3.org/TR/2001/REC-SVG-20010904/DTD/svg10.dtd">
<svg version="1.0" xmlns="http://www.w3.org/2000/svg"
 width="831.000000pt" height="831.000000pt" viewBox="0 0 831.000000 831.000000"
 preserveAspectRatio="xMidYMid meet">
<metadata>
Created by potrace 1.11, written by Peter Selinger 2001-2013
</metadata>
<g transform="translate(0.000000,831.000000) scale(0.100000,-0.100000)"
fill="#000000" stroke="none">
<path d="M3820 8299 c-862 -70 -1670 -403 -2345 -968 -116 -96 -390 -370 -486
-486 -537 -642 -852 -1372 -956 -2215 -25 -205 -25 -715 0 -920 104 -844 419
-1573 956 -2215 96 -116 370 -390 486 -486 652 -546 1408 -867 2260 -961 183
-20 693 -17 875 5 207 26 352 52 535 97 1168 287 2167 1086 2709 2169 220 438
361 924 418 1436 17 159 17 671 0 830 -109 990 -537 1874 -1234 2550 -585 568
-1303 946 -2093 1099 -352 69 -776 93 -1125 65z"/>
</g>
</svg>
